# xmcd
#
# Track frame offsets: 
#        150
#        21962
#        36320
#        54567
#        65527
#        76005
#        88777
#        106177
#        124022
#        139405
#        157302
#        170197
#        183737
#        199502
#        215180
#
# Disc length: 3095 seconds
#
# Revision: 0
# Processed by: cddbd v1.5.2PL0 Copyright (c) Steve Scherf et al.
# Submitted via: ExactAudioCopyFreeDBPlugin 1.0
#
DISCID=e20c150f
DTITLE=Miranda Lambert - Revolution
DYEAR=2009
DGENRE=Country
TTITLE0=White Liar
TTITLE1=Only Prettier
TTITLE2=Dead Flowers
TTITLE3=Me And Your Cigarettes
TTITLE4=Maintain The Pain
TTITLE5=Airstream Song
TTITLE6=Makin' Plans
TTITLE7=Time To Get A Gun
TTITLE8=Somewhere Trouble Don't Go
TTITLE9=The House That Built Me
TTITLE10=Love Song
TTITLE11=Heart Like Mine
TTITLE12=Sin For A Sin
TTITLE13=That's The Way That The World Goes 'Round
TTITLE14=Virginia Bluebell
EXTD=
EXTT0=
EXTT1=
EXTT2=
EXTT3=
EXTT4=
EXTT5=
EXTT6=
EXTT7=
EXTT8=
EXTT9=
EXTT10=
EXTT11=
EXTT12=
EXTT13=
EXTT14=
PLAYORDER=
